<?xml version="1.0" encoding="UTF-8" standalone="no"?>
<svg
   xmlns:dc="http://purl.org/dc/elements/1.1/"
   xmlns:cc="http://creativecommons.org/ns#"
   xmlns:rdf="http://www.w3.org/1999/02/22-rdf-syntax-ns#"
   xmlns:svg="http://www.w3.org/2000/svg"
   xmlns="http://www.w3.org/2000/svg"
   xmlns:sodipodi="http://sodipodi.sourceforge.net/DTD/sodipodi-0.dtd"
   xmlns:inkscape="http://www.inkscape.org/namespaces/inkscape"
   height="1976"
   viewBox="0 0 1792 1976"
   width="1792"
   version="1.1"
   id="svg4"
   sodipodi:docname="birthdayCake.svg"
   inkscape:version="0.92.3 (2405546, 2018-03-11)">
  <metadata
     id="metadata10">
    <rdf:RDF>
      <cc:Work
         rdf:about="">
        <dc:format>image/svg+xml</dc:format>
        <dc:type
           rdf:resource="http://purl.org/dc/dcmitype/StillImage" />
        <dc:title></dc:title>
      </cc:Work>
    </rdf:RDF>
  </metadata>
  <defs
     id="defs8" />
  <sodipodi:namedview
     pagecolor="#ffffff"
     bordercolor="#666666"
     borderopacity="1"
     objecttolerance="10"
     gridtolerance="10"
     guidetolerance="10"
     inkscape:pageopacity="0"
     inkscape:pageshadow="2"
     inkscape:window-width="1920"
     inkscape:window-height="1001"
     id="namedview6"
     showgrid="false"
     inkscape:zoom="0.13169643"
     inkscape:cx="83.341624"
     inkscape:cy="-127.17056"
     inkscape:window-x="-9"
     inkscape:window-y="-9"
     inkscape:window-maximized="1"
     inkscape:current-layer="svg4"
     fit-margin-top="0"
     fit-margin-left="0"
     fit-margin-right="0"
     fit-margin-bottom="0" />
  <path
     d="m 1792,1408 v 568 H 0 v -568 -128 -192 c 0,-53.3333 18.666667,-98.66667 56,-136 37.333333,-37.33333 82.66667,-56 136,-56 h 64 V 448 H 512 V 896 H 768 V 448 h 256 v 448 h 256 V 448 h 256 v 448 h 64 c 53.3333,0 98.6667,18.66667 136,56 37.3333,37.33333 56,82.6667 56,136 v 192 z M 512,224 c 0,51.33333 -12,90.83333 -36,118.5 -24,27.66667 -54.66667,41.5 -92,41.5 -35.33333,0 -65.5,-12.5 -90.5,-37.5 -25,-25 -37.5,-55.16667 -37.5,-90.5 0,-19.33333 3.16667,-36.33333 9.5,-51 6.33333,-14.66667 14.16667,-26 23.5,-34 9.33333,-8 19.66667,-17.33333 31,-28 11.33333,-10.66667 21.66667,-21.16667 31,-31.5 9.33333,-10.33333 17.16667,-25.166667 23.5,-44.5 6.33333,-19.333333 9.5,-41.666667 9.5,-67 25.33333,0 53,24.666667 83,74 30,49.33333 45,99.33333 45,150 z m 512,0 c 0,51.33333 -12,90.83333 -36,118.5 -24,27.66667 -54.66667,41.5 -92,41.5 -35.33333,0 -65.5,-12.5 -90.5,-37.5 -25,-25 -37.5,-55.16667 -37.5,-90.5 0,-19.33333 3.16667,-36.33333 9.5,-51 6.33333,-14.66667 14.16667,-26 23.5,-34 9.33333,-8 19.66667,-17.33333 31,-28 11.33333,-10.66667 21.66667,-21.16667 31,-31.5 9.33333,-10.33333 17.16667,-25.166667 23.5,-44.5 6.33333,-19.333333 9.5,-41.666667 9.5,-67 25.33333,0 53,24.666667 83,74 30,49.33333 45,99.33333 45,150 z m 512,0 c 0,51.33333 -12,90.83333 -36,118.5 -24,27.66667 -54.6667,41.5 -92,41.5 -35.3333,0 -65.5,-12.5 -90.5,-37.5 -25,-25 -37.5,-55.16667 -37.5,-90.5 0,-19.33333 3.1667,-36.33333 9.5,-51 6.3333,-14.66667 14.1667,-26 23.5,-34 9.3333,-8 19.6667,-17.33333 31,-28 11.3333,-10.66667 21.6667,-21.16667 31,-31.5 9.3333,-10.33333 17.1667,-25.166667 23.5,-44.5 6.3333,-19.333333 9.5,-41.666667 9.5,-67 25.3333,0 53,24.666667 83,74 30,49.33333 45,99.33333 45,150 z"
     id="path2"
     inkscape:connector-curvature="0"
     sodipodi:nodetypes="cccccsssccccccccccccsssccsssssssssscsssssssssssscsssssssssssscss" />
</svg>
