<?xml version="1.0" encoding="UTF-8" standalone="no"?>
<svg
   xmlns:dc="http://purl.org/dc/elements/1.1/"
   xmlns:cc="http://creativecommons.org/ns#"
   xmlns:rdf="http://www.w3.org/1999/02/22-rdf-syntax-ns#"
   xmlns:svg="http://www.w3.org/2000/svg"
   xmlns="http://www.w3.org/2000/svg"
   xmlns:sodipodi="http://sodipodi.sourceforge.net/DTD/sodipodi-0.dtd"
   xmlns:inkscape="http://www.inkscape.org/namespaces/inkscape"
   data-name="Layer 1"
   width="147.6152"
   height="152.68027"
   viewBox="0 0 147.61521 152.68027"
   version="1.1"
   id="svg52"
   sodipodi:docname="savings.svg"
   inkscape:version="0.92.3 (2405546, 2018-03-11)">
  <metadata
     id="metadata58">
    <rdf:RDF>
      <cc:Work
         rdf:about="">
        <dc:format>image/svg+xml</dc:format>
        <dc:type
           rdf:resource="http://purl.org/dc/dcmitype/StillImage" />
        <dc:title></dc:title>
      </cc:Work>
    </rdf:RDF>
  </metadata>
  <defs
     id="defs56" />
  <sodipodi:namedview
     pagecolor="#ffffff"
     bordercolor="#666666"
     borderopacity="1"
     objecttolerance="10"
     gridtolerance="10"
     guidetolerance="10"
     inkscape:pageopacity="0"
     inkscape:pageshadow="2"
     inkscape:window-width="1920"
     inkscape:window-height="1001"
     id="namedview54"
     showgrid="false"
     fit-margin-top="0"
     fit-margin-left="0"
     fit-margin-right="0"
     fit-margin-bottom="0"
     inkscape:zoom="0.17105284"
     inkscape:cx="-297.57042"
     inkscape:cy="1036.1393"
     inkscape:window-x="1271"
     inkscape:window-y="-9"
     inkscape:window-maximized="1"
     inkscape:current-layer="svg52" />
  <g
     id="g4729"
     transform="translate(-53.041725,221.39662)">
    <circle
       r="73.807602"
       cy="-147.58902"
       cx="126.84933"
       id="path4705"
       style="opacity:1;vector-effect:none;fill:#ff4763;fill-opacity:1;stroke:none;stroke-width:0.637137;stroke-linecap:butt;stroke-linejoin:miter;stroke-miterlimit:4;stroke-dasharray:none;stroke-dashoffset:0;stroke-opacity:1;paint-order:normal" />
    <g
       id="g4716">
      <path
         style="opacity:1;vector-effect:none;fill:#ffdcdc;fill-opacity:1;stroke:none;stroke-width:0.62362206;stroke-linecap:butt;stroke-linejoin:miter;stroke-miterlimit:4;stroke-dasharray:none;stroke-dashoffset:0;stroke-opacity:1;paint-order:normal"
         d="m 103.03575,-143.54838 c 1.4758,0.043 3.20499,0.80343 4.70508,2.09375 2.63503,2.26657 2.98524,2.31344 7.83789,1.05468 10.68485,-2.77162 24.18974,-1.11346 34.82031,4.27344 6.2344,3.15925 14.23078,11.1309 15.95898,15.91016 1.5097,4.17494 3.31042,4.40482 6.97852,0.89062 3.5017,-3.35488 5.28917,-2.36072 4.38867,2.43946 -0.9431,5.02729 -2.92793,8.5246 -5.67383,9.99414 -1.6114,0.86241 -2.87906,3.0801 -4.06836,7.115235 -2.1333,7.23876 -6.85092,13.61665 -12.98632,17.56055 -4.4338,2.850156 -4.66921,3.231475 -4.72071,7.642575 -0.063,5.35092 -0.77059,5.857422 -8.20117,5.857422 -5.5462,0 -8.85351,-1.320316 -8.85351,-3.535156 0,-1.13619 -1.45828,-1.464844 -6.5,-1.464844 -5.71088,0 -6.5,0.229388 -6.5,1.892578 0,1.04116 -0.71205,2.16616 -1.58204,2.5 -1.86056,0.71397 -11.3604,0.674693 -13.16796,-0.05469 -0.73105,-0.29498 -1.25001,-2.310326 -1.25,-4.853516 0,-3.77788 -0.42652,-4.642947 -3.25,-6.597652 -1.787509,-1.2375 -5.151359,-3.96841 -7.476569,-6.06836 -2.32521,-2.09996 -5.11671,-3.81836 -6.20312,-3.81836 -6.75481,0 -11.51756,-7.04984 -11.54883,-17.093752 -0.0253,-8.11529 1.21399,-9.90625 6.85352,-9.90625 3.876,0 4.27579,-0.27703 6.52539,-4.51758 1.31813,-2.4847 4.11281,-6.06931 6.21093,-7.96484 3.23471,-2.92238 3.86892,-4.1742 4.16992,-8.23243 0.3174,-4.27918 0.626919,-4.81724 2.917969,-5.08984 0.19909,-0.0237 0.40441,-0.0335 0.61524,-0.0273 z"
         id="path4701"
         inkscape:connector-curvature="0" />
      <path
         style="fill:#000000"
         d="m 105.47174,-69.379104 c -0.73104,-0.29498 -1.25,-2.30977 -1.25,-4.85296 0,-3.77788 -0.42652,-4.64385 -3.25,-6.59856 -1.787504,-1.2375 -5.152454,-3.96814 -7.477664,-6.06809 -2.32521,-2.09996 -5.11653,-3.81811 -6.20294,-3.81811 -6.75481,0 -11.5176,-7.0493 -11.54887,-17.093216 -0.0253,-8.11529 1.21411,-9.90678 6.85363,-9.90678 3.87601,0 4.27627,-0.27708 6.52587,-4.51763 1.31813,-2.4847 4.11325,-6.06852 6.21137,-7.96405 3.23471,-2.92237 3.86874,-4.17414 4.16974,-8.23237 0.31739,-4.27918 0.626304,-4.81823 2.917354,-5.09083 1.5927,-0.18951 3.60612,0.59291 5.32051,2.06756 2.63503,2.26657 2.98485,2.31365 7.8375,1.05489 10.68485,-2.77162 24.19038,-1.11457 34.8209,4.27233 6.23449,3.15925 14.23067,11.13116 15.95888,15.91042 1.50967,4.17494 3.30971,4.40464 6.97774,0.89044 3.50174,-3.35488 5.29057,-2.36096 4.39006,2.43921 -0.94313,5.0273 -2.92867,8.52412 -5.67452,9.99366 -1.61141,0.8624 -2.87956,3.08006 -4.06878,7.115206 -2.13336,7.23876 -6.84979,13.61726 -12.98519,17.56116 -4.43389,2.85016 -4.66971,3.23191 -4.72129,7.64301 -0.0626,5.35092 -0.77125,5.85699 -8.20183,5.85699 -5.5462,0 -8.85247,-1.32034 -8.85247,-3.53518 0,-1.13619 -1.45828,-1.46482 -6.5,-1.46482 -5.71088,0 -6.5,0.22982 -6.5,1.89301 0,1.04116 -0.7118,2.16616 -1.58179,2.5 -1.86056,0.71397 -11.36065,0.67408 -13.16821,-0.0553 z m 12.46129,-3.02775 c 0.36208,-0.94356 0.12737,-1.86375 -0.53138,-2.08333 -3.404,-1.13467 -0.0372,-1.72664 9.82009,-1.72664 9.8573,0 13.22409,0.59197 9.82009,1.72664 -0.65876,0.21958 -0.89346,1.13977 -0.53139,2.08333 0.4706,1.22636 1.82316,1.68583 4.92991,1.67472 5.92568,-0.0212 7.11486,-1.00258 6.59638,-5.44371 -0.41053,-3.51647 -0.17768,-3.85709 4.97433,-7.27681 6.97881,-4.63226 11.97319,-12.08263 13.50582,-20.147326 0.9464,-4.97995 1.46908,-6.00906 2.83222,-5.57642 1.78341,0.56603 5.87264,-3.73393 5.87264,-6.17528 0,-1.77608 -0.27713,-1.73698 -4.5,0.63486 -4.07368,2.28805 -4.5,2.38175 -4.5,0.9891 0,-2.54474 -4.45739,-10.06067 -8.28306,-13.96667 -8.83629,-9.02184 -25.45834,-13.6488 -39.20457,-10.91308 l -6.98763,1.39065 -0.61322,3.80085 c -0.33727,2.09046 -1.15337,4.34046 -1.81355,5 -0.93369,0.93276 -1.05006,0.25852 -0.52386,-3.03515 0.50084,-3.13488 0.2485,-4.88749 -0.97187,-6.75 -2.43222,-3.71205 -3.41938,-3.07303 -2.86404,1.85398 0.3202,2.84084 0.0649,4.63399 -0.72977,5.12511 -0.91111,0.5631 -1.04968,-0.0305 -0.5443,-2.33149 0.3729,-1.6978 0.20971,-3.8916 -0.36266,-4.8751 -0.87127,-1.49714 -1.0456,-1.24157 -1.07106,1.57009 -0.0246,2.7194 -1.05399,4.36564 -5.410824,8.65341 -3.43989,3.38537 -6.02414,7.04311 -7.16528,10.14171 -2.15222,5.84405 -3.45431,7.55787 -3.45431,4.54659 0,-1.73705 -0.57869,-2.19678 -2.75,-2.18469 -4.77187,0.0266 -5.73962,1.34421 -5.64988,7.69258 0.12013,8.497426 3.01758,13.405096 8.76608,14.847876 2.58708,0.64932 2.79138,0.51609 2.17702,-1.4196 -1.12804,-3.55413 0.77367,-2.30561 4.03022,2.64596 1.69039,2.57022 5.40289,6.24074 8.250004,8.1567 4.86258,3.27228 5.17656,3.73865 5.17656,7.68904 0,4.71391 0.59602,5.17913 6.78138,5.29318 3.14642,0.058 4.45331,-0.36907 4.92991,-1.61108 z M 95.606836,-116.15565 c -0.79085,-2.06091 1.3372,-4.60496 3.24088,-3.87445 1.995394,0.7657 1.319504,4.70794 -0.879,5.12697 -0.96417,0.18377 -2.02701,-0.37987 -2.36188,-1.25252 z m 20.939234,-18.06117 c 0.55604,-1.71443 11.24762,-2.89248 17.35134,-1.91186 9.83915,1.58077 7.24463,2.91186 -5.67567,2.91186 -7.54955,0 -11.87972,-0.37087 -11.67567,-1 z"
         id="path4646"
         inkscape:connector-curvature="0" />
      <path
         style="fill:#000000"
         d="m 119.57025,-156.15417 c -3.18936,-3.18936 -3.47483,-3.92376 -2.97469,-7.65258 0.71191,-5.30766 4.16577,-8.80368 9.38976,-9.50436 3.46402,-0.46463 4.47665,-0.11022 7.65258,2.67828 2.84547,2.49836 3.66027,3.95936 3.66027,6.56312 0,6.99277 -4.29779,11.44346 -11.05034,11.44346 -2.27102,0 -4.13381,-0.98415 -6.67758,-3.52792 z"
         id="path4677"
         inkscape:connector-curvature="0" />
      <path
         style="fill:#ffd700;fill-opacity:1"
         d="m 133.04817,-158.21966 c 2.86165,-3.20265 2.86165,-6.61427 0,-9.79945 -2.27177,-2.52862 -3.40694,-2.94116 -7.5,-2.72562 -7.08066,0.37286 -8.6151,12.37556 -1.93462,15.13303 3.15855,1.30375 6.85155,0.28291 9.43462,-2.60796 z"
         id="path4675"
         inkscape:connector-curvature="0" />
      <path
         style="fill:#000000"
         d="m 122.8696,-159.19768 c -3.50185,-3.50185 -0.58841,-9.42857 4.63487,-9.42857 3.08556,0 5.0437,2.1353 5.0437,5.5 0,1.37161 -0.56135,3.17023 -1.24744,3.99692 -1.63059,1.96475 -6.437,1.92578 -8.43113,-0.0684 z"
         id="path4673"
         inkscape:connector-curvature="0" />
      <path
         style="fill:#ffd700;fill-opacity:1"
         d="m 130.09817,-159.82625 c 2.55011,-2.55011 0.75218,-7.8 -2.67125,-7.8 -1.87038,0 -5.12875,2.91201 -5.12875,4.58356 0,3.42484 5.3751,5.64134 7.8,3.21644 z"
         id="path4671"
         inkscape:connector-curvature="0" />
      <path
         style="fill:#000000"
         d="m 124.29817,-187.12625 c 0,-5.66667 0.40351,-9.5 1,-9.5 0.5965,0 1,3.83333 1,9.5 0,5.66667 -0.4035,9.5 -1,9.5 -0.59649,0 -1,-3.83333 -1,-9.5 z"
         id="path4669"
         inkscape:connector-curvature="0" />
      <path
         style="fill:#000000"
         d="m 127.29817,-183.62625 c 0,-3.33333 0.44445,-6 1,-6 0.55556,0 1,2.66667 1,6 0,3.33333 -0.44444,6 -1,6 -0.55555,0 -1,-2.66667 -1,-6 z"
         id="path4667"
         inkscape:connector-curvature="0" />
      <path
         style="fill:#000000"
         d="m 127.29817,-192.62625 c 0,-0.55 0.45,-1 1,-1 0.55,0 1,0.45 1,1 0,0.55 -0.45,1 -1,1 -0.55,0 -1,-0.45 -1,-1 z"
         id="path4663"
         inkscape:connector-curvature="0" />
    </g>
  </g>
</svg>
